<svg width="36" height="36" viewBox="0 0 36 36" fill="none" xmlns="http://www.w3.org/2000/svg">
<g id="Size=36, Color=Black, Type=imgComida" clip-path="url(#clip0_2850_2)">
<path id="Imagen de la comida" d="M4.18279 12.6364V17H3.65439V12.6364H4.18279ZM5.17409 17V13.7273H5.65989V14.2386H5.7025C5.77069 14.0639 5.88077 13.9283 6.03276 13.8317C6.18475 13.7337 6.36728 13.6847 6.58034 13.6847C6.79625 13.6847 6.97594 13.7337 7.11941 13.8317C7.26429 13.9283 7.37722 14.0639 7.45819 14.2386H7.49228C7.57608 14.0696 7.70179 13.9354 7.86941 13.8359C8.03702 13.7351 8.23802 13.6847 8.47239 13.6847C8.765 13.6847 9.00435 13.7763 9.19043 13.9595C9.37651 14.1413 9.46955 14.4247 9.46955 14.8097V17H8.96671V14.8097C8.96671 14.5682 8.90066 14.3956 8.76855 14.2919C8.63645 14.1882 8.48091 14.1364 8.30194 14.1364C8.07182 14.1364 7.89355 14.206 7.76713 14.3452C7.64071 14.483 7.5775 14.6577 7.5775 14.8693V17H7.06614V14.7585C7.06614 14.5724 7.00577 14.4226 6.88503 14.3089C6.76429 14.1939 6.60875 14.1364 6.41841 14.1364C6.28773 14.1364 6.16557 14.1712 6.05194 14.2408C5.93972 14.3104 5.84881 14.407 5.77921 14.5305C5.71103 14.6527 5.67694 14.794 5.67694 14.9545V17H5.17409ZM11.352 17.0767C11.1446 17.0767 10.9564 17.0376 10.7874 16.9595C10.6183 16.88 10.4841 16.7656 10.3847 16.6165C10.2852 16.4659 10.2355 16.2841 10.2355 16.071C10.2355 15.8835 10.2725 15.7315 10.3463 15.6151C10.4202 15.4972 10.5189 15.4048 10.6425 15.3381C10.7661 15.2713 10.9024 15.2216 11.0516 15.1889C11.2021 15.1548 11.3534 15.1278 11.5054 15.108C11.7043 15.0824 11.8655 15.0632 11.9891 15.0504C12.1141 15.0362 12.205 15.0128 12.2618 14.9801C12.32 14.9474 12.3492 14.8906 12.3492 14.8097V14.7926C12.3492 14.5824 12.2916 14.419 12.1766 14.3026C12.0629 14.1861 11.8904 14.1278 11.6588 14.1278C11.4188 14.1278 11.2306 14.1804 11.0942 14.2855C10.9578 14.3906 10.8619 14.5028 10.8066 14.6222L10.3293 14.4517C10.4145 14.2528 10.5281 14.098 10.6702 13.9872C10.8137 13.875 10.9699 13.7969 11.1389 13.7528C11.3094 13.7074 11.477 13.6847 11.6418 13.6847C11.7469 13.6847 11.8676 13.6974 12.004 13.723C12.1418 13.7472 12.2746 13.7976 12.4024 13.8743C12.5317 13.951 12.6389 14.0668 12.7242 14.2216C12.8094 14.3764 12.852 14.5838 12.852 14.8438V17H12.3492V16.5568H12.3236C12.2895 16.6278 12.2327 16.7038 12.1531 16.7848C12.0736 16.8658 11.9678 16.9347 11.8357 16.9915C11.7036 17.0483 11.5423 17.0767 11.352 17.0767ZM11.4287 16.625C11.6276 16.625 11.7952 16.5859 11.9316 16.5078C12.0693 16.4297 12.173 16.3288 12.2426 16.2053C12.3137 16.0817 12.3492 15.9517 12.3492 15.8153V15.3551C12.3279 15.3807 12.281 15.4041 12.2085 15.4254C12.1375 15.4453 12.0551 15.4631 11.9614 15.4787C11.8691 15.4929 11.7789 15.5057 11.6908 15.517C11.6041 15.527 11.5338 15.5355 11.4798 15.5426C11.3492 15.5597 11.227 15.5874 11.1134 15.6257C11.0012 15.6626 10.9102 15.7187 10.8406 15.794C10.7725 15.8679 10.7384 15.9687 10.7384 16.0966C10.7384 16.2713 10.803 16.4034 10.9323 16.4929C11.0629 16.581 11.2284 16.625 11.4287 16.625ZM15.0908 18.2955C14.8479 18.2955 14.6391 18.2642 14.4644 18.2017C14.2897 18.1406 14.1441 18.0597 14.0276 17.9588C13.9126 17.8594 13.8209 17.7528 13.7528 17.6392L14.1533 17.358C14.1988 17.4176 14.2563 17.4858 14.3259 17.5625C14.3955 17.6406 14.4907 17.7081 14.6114 17.7649C14.7336 17.8232 14.8934 17.8523 15.0908 17.8523C15.355 17.8523 15.5731 17.7884 15.7449 17.6605C15.9168 17.5327 16.0028 17.3324 16.0028 17.0597V16.3949H15.9601C15.9232 16.4545 15.8706 16.5284 15.8025 16.6165C15.7357 16.7031 15.6391 16.7805 15.5127 16.8487C15.3877 16.9155 15.2187 16.9489 15.0056 16.9489C14.7414 16.9489 14.5042 16.8864 14.2939 16.7614C14.0851 16.6364 13.9197 16.4545 13.7975 16.2159C13.6768 15.9773 13.6164 15.6875 13.6164 15.3466C13.6164 15.0114 13.6753 14.7195 13.7932 14.4709C13.9111 14.2209 14.0752 14.0277 14.2854 13.8913C14.4956 13.7536 14.7385 13.6847 15.0141 13.6847C15.2272 13.6847 15.3962 13.7202 15.5212 13.7912C15.6476 13.8608 15.7442 13.9403 15.811 14.0298C15.8792 14.1179 15.9317 14.1903 15.9687 14.2472H16.0198V13.7273H16.5056V17.0938C16.5056 17.375 16.4417 17.6037 16.3138 17.7798C16.1874 17.9574 16.017 18.0874 15.8025 18.1697C15.5894 18.2536 15.3522 18.2955 15.0908 18.2955ZM15.0738 16.4972C15.2755 16.4972 15.4459 16.451 15.5851 16.3587C15.7243 16.2663 15.8302 16.1335 15.9026 15.9602C15.9751 15.7869 16.0113 15.5795 16.0113 15.3381C16.0113 15.1023 15.9758 14.8942 15.9047 14.7138C15.8337 14.5334 15.7286 14.392 15.5894 14.2898C15.4502 14.1875 15.2783 14.1364 15.0738 14.1364C14.8607 14.1364 14.6831 14.1903 14.5411 14.2983C14.4005 14.4062 14.2947 14.5511 14.2236 14.733C14.154 14.9148 14.1192 15.1165 14.1192 15.3381C14.1192 15.5653 14.1547 15.7663 14.2258 15.9411C14.2982 16.1143 14.4047 16.2507 14.5454 16.3501C14.6874 16.4482 14.8635 16.4972 15.0738 16.4972ZM18.7982 17.0682C18.4829 17.0682 18.2108 16.9986 17.9822 16.8594C17.7549 16.7188 17.5795 16.5227 17.4559 16.2713C17.3337 16.0185 17.2726 15.7244 17.2726 15.3892C17.2726 15.054 17.3337 14.7585 17.4559 14.5028C17.5795 14.2457 17.7513 14.0455 17.9715 13.902C18.1931 13.7571 18.4516 13.6847 18.7471 13.6847C18.9175 13.6847 19.0858 13.7131 19.252 13.7699C19.4182 13.8267 19.5695 13.919 19.7059 14.0469C19.8422 14.1733 19.9509 14.3409 20.0319 14.5497C20.1128 14.7585 20.1533 15.0156 20.1533 15.321V15.5341H17.6306V15.0994H19.642C19.642 14.9148 19.605 14.75 19.5312 14.6051C19.4587 14.4602 19.355 14.3459 19.2201 14.2621C19.0866 14.1783 18.9289 14.1364 18.7471 14.1364C18.5468 14.1364 18.3735 14.1861 18.2272 14.2855C18.0823 14.3835 17.9708 14.5114 17.8927 14.669C17.8145 14.8267 17.7755 14.9957 17.7755 15.1761V15.4659C17.7755 15.7131 17.8181 15.9226 17.9033 16.0945C17.99 16.2649 18.11 16.3949 18.2634 16.4844C18.4168 16.5724 18.5951 16.6165 18.7982 16.6165C18.9303 16.6165 19.0496 16.598 19.1562 16.5611C19.2641 16.5227 19.3572 16.4659 19.4353 16.3906C19.5134 16.3139 19.5738 16.2187 19.6164 16.1051L20.1022 16.2415C20.051 16.4062 19.9651 16.5511 19.8444 16.6761C19.7236 16.7997 19.5745 16.8963 19.3969 16.9659C19.2194 17.0341 19.0198 17.0682 18.7982 17.0682ZM21.4211 15.0312V17H20.9182V13.7273H21.404V14.2386H21.4466C21.5233 14.0724 21.6398 13.9389 21.7961 13.8381C21.9523 13.7358 22.154 13.6847 22.4012 13.6847C22.6228 13.6847 22.8167 13.7301 22.9829 13.821C23.1491 13.9105 23.2783 14.0469 23.3706 14.2301C23.463 14.4119 23.5091 14.642 23.5091 14.9205V17H23.0063V14.9545C23.0063 14.6974 22.9395 14.4972 22.806 14.3537C22.6725 14.2088 22.4893 14.1364 22.2563 14.1364C22.0958 14.1364 21.9523 14.1712 21.8259 14.2408C21.7009 14.3104 21.6022 14.4119 21.5297 14.5455C21.4573 14.679 21.4211 14.8409 21.4211 15.0312ZM27.3513 17.0682C27.0786 17.0682 26.8378 16.9993 26.629 16.8615C26.4202 16.7223 26.2568 16.5263 26.1389 16.2734C26.021 16.0192 25.9621 15.7188 25.9621 15.3722C25.9621 15.0284 26.021 14.7301 26.1389 14.4773C26.2568 14.2244 26.4209 14.0291 26.6311 13.8913C26.8414 13.7536 27.0843 13.6847 27.3598 13.6847C27.5729 13.6847 27.7412 13.7202 27.8648 13.7912C27.9898 13.8608 28.085 13.9403 28.1503 14.0298C28.2171 14.1179 28.2689 14.1903 28.3058 14.2472H28.3485V12.6364H28.8513V17H28.3655V16.4972H28.3058C28.2689 16.5568 28.2164 16.6321 28.1482 16.723C28.08 16.8125 27.9827 16.8928 27.8563 16.9638C27.7298 17.0334 27.5615 17.0682 27.3513 17.0682ZM27.4195 16.6165C27.6212 16.6165 27.7916 16.5639 27.9308 16.4588C28.07 16.3523 28.1759 16.2053 28.2483 16.0178C28.3208 15.8288 28.357 15.6108 28.357 15.3636C28.357 15.1193 28.3215 14.9055 28.2504 14.7223C28.1794 14.5376 28.0743 14.3942 27.9351 14.2919C27.7959 14.1882 27.624 14.1364 27.4195 14.1364C27.2064 14.1364 27.0289 14.1911 26.8868 14.3004C26.7462 14.4084 26.6404 14.5554 26.5693 14.7415C26.4997 14.9261 26.4649 15.1335 26.4649 15.3636C26.4649 15.5966 26.5004 15.8082 26.5715 15.9986C26.6439 16.1875 26.7504 16.3381 26.8911 16.4503C27.0331 16.5611 27.2093 16.6165 27.4195 16.6165ZM31.2142 17.0682C30.8989 17.0682 30.6269 16.9986 30.3982 16.8594C30.1709 16.7188 29.9955 16.5227 29.8719 16.2713C29.7497 16.0185 29.6887 15.7244 29.6887 15.3892C29.6887 15.054 29.7497 14.7585 29.8719 14.5028C29.9955 14.2457 30.1673 14.0455 30.3875 13.902C30.6091 13.7571 30.8676 13.6847 31.1631 13.6847C31.3335 13.6847 31.5019 13.7131 31.6681 13.7699C31.8343 13.8267 31.9855 13.919 32.1219 14.0469C32.2583 14.1733 32.3669 14.3409 32.4479 14.5497C32.5289 14.7585 32.5693 15.0156 32.5693 15.321V15.5341H30.0466V15.0994H32.058C32.058 14.9148 32.021 14.75 31.9472 14.6051C31.8747 14.4602 31.771 14.3459 31.6361 14.2621C31.5026 14.1783 31.3449 14.1364 31.1631 14.1364C30.9628 14.1364 30.7895 14.1861 30.6432 14.2855C30.4983 14.3835 30.3868 14.5114 30.3087 14.669C30.2306 14.8267 30.1915 14.9957 30.1915 15.1761V15.4659C30.1915 15.7131 30.2341 15.9226 30.3193 16.0945C30.406 16.2649 30.526 16.3949 30.6794 16.4844C30.8328 16.5724 31.0111 16.6165 31.2142 16.6165C31.3463 16.6165 31.4656 16.598 31.5722 16.5611C31.6801 16.5227 31.7732 16.4659 31.8513 16.3906C31.9294 16.3139 31.9898 16.2187 32.0324 16.1051L32.5182 16.2415C32.4671 16.4062 32.3811 16.5511 32.2604 16.6761C32.1396 16.7997 31.9905 16.8963 31.8129 16.9659C31.6354 17.0341 31.4358 17.0682 31.2142 17.0682ZM5.37811 19.6364V24H4.87527V19.6364H5.37811ZM7.26216 24.0767C7.05478 24.0767 6.86657 24.0376 6.69753 23.9595C6.5285 23.88 6.39426 23.7656 6.29483 23.6165C6.1954 23.4659 6.14569 23.2841 6.14569 23.071C6.14569 22.8835 6.18262 22.7315 6.25648 22.6151C6.33034 22.4972 6.42907 22.4048 6.55265 22.3381C6.67623 22.2713 6.81259 22.2216 6.96174 22.1889C7.1123 22.1548 7.26358 22.1278 7.41557 22.108C7.61444 22.0824 7.77566 22.0632 7.89924 22.0504C8.02424 22.0362 8.11515 22.0128 8.17196 21.9801C8.2302 21.9474 8.25932 21.8906 8.25932 21.8097V21.7926C8.25932 21.5824 8.20179 21.419 8.08674 21.3026C7.9731 21.1861 7.80051 21.1278 7.56898 21.1278C7.32892 21.1278 7.14071 21.1804 7.00435 21.2855C6.86799 21.3906 6.77211 21.5028 6.71671 21.6222L6.23944 21.4517C6.32466 21.2528 6.4383 21.098 6.58034 20.9872C6.72381 20.875 6.88006 20.7969 7.04909 20.7528C7.21955 20.7074 7.38716 20.6847 7.55194 20.6847C7.65705 20.6847 7.77779 20.6974 7.91415 20.723C8.05194 20.7472 8.18475 20.7976 8.31259 20.8743C8.44185 20.951 8.54909 21.0668 8.63432 21.2216C8.71955 21.3764 8.76216 21.5838 8.76216 21.8438V24H8.25932V23.5568H8.23375C8.19966 23.6278 8.14284 23.7038 8.0633 23.7848C7.98375 23.8658 7.87793 23.9347 7.74583 23.9915C7.61373 24.0483 7.4525 24.0767 7.26216 24.0767ZM7.33887 23.625C7.53773 23.625 7.70534 23.5859 7.84171 23.5078C7.97949 23.4297 8.08319 23.3288 8.15279 23.2053C8.22381 23.0817 8.25932 22.9517 8.25932 22.8153V22.3551C8.23801 22.3807 8.19114 22.4041 8.1187 22.4254C8.04767 22.4453 7.96529 22.4631 7.87154 22.4787C7.77921 22.4929 7.68901 22.5057 7.60094 22.517C7.51429 22.527 7.44398 22.5355 7.39 22.5426C7.25932 22.5597 7.13716 22.5874 7.02353 22.6257C6.91131 22.6626 6.8204 22.7187 6.7508 22.794C6.68262 22.8679 6.64853 22.9687 6.64853 23.0966C6.64853 23.2713 6.71316 23.4034 6.84242 23.4929C6.9731 23.581 7.13858 23.625 7.33887 23.625ZM12.697 24.0682C12.3902 24.0682 12.126 23.9957 11.9044 23.8509C11.6828 23.706 11.5123 23.5064 11.393 23.2521C11.2737 22.9979 11.214 22.7074 11.214 22.3807C11.214 22.0483 11.2751 21.755 11.3973 21.5007C11.5209 21.245 11.6927 21.0455 11.9129 20.902C12.1345 20.7571 12.393 20.6847 12.6885 20.6847C12.9186 20.6847 13.126 20.7273 13.3106 20.8125C13.4953 20.8977 13.6466 21.017 13.7645 21.1705C13.8824 21.3239 13.9555 21.5028 13.9839 21.7074H13.4811C13.4427 21.5582 13.3575 21.4261 13.2254 21.3111C13.0947 21.1946 12.9186 21.1364 12.697 21.1364C12.501 21.1364 12.3291 21.1875 12.1814 21.2898C12.0351 21.3906 11.9207 21.5334 11.8383 21.718C11.7574 21.9013 11.7169 22.1165 11.7169 22.3636C11.7169 22.6165 11.7567 22.8366 11.8362 23.0241C11.9172 23.2116 12.0308 23.3572 12.1771 23.4609C12.3248 23.5646 12.4981 23.6165 12.697 23.6165C12.8277 23.6165 12.9463 23.5938 13.0528 23.5483C13.1594 23.5028 13.2496 23.4375 13.3234 23.3523C13.3973 23.267 13.4498 23.1648 13.4811 23.0455H13.9839C13.9555 23.2386 13.8852 23.4126 13.773 23.5675C13.6622 23.7209 13.5152 23.843 13.3319 23.9339C13.1501 24.0234 12.9385 24.0682 12.697 24.0682ZM16.0486 24.0682C15.7531 24.0682 15.4939 23.9979 15.2709 23.8572C15.0493 23.7166 14.876 23.5199 14.751 23.267C14.6274 23.0142 14.5656 22.7187 14.5656 22.3807C14.5656 22.0398 14.6274 21.7422 14.751 21.4879C14.876 21.2337 15.0493 21.0362 15.2709 20.8956C15.4939 20.755 15.7531 20.6847 16.0486 20.6847C16.344 20.6847 16.6025 20.755 16.8241 20.8956C17.0471 21.0362 17.2204 21.2337 17.344 21.4879C17.469 21.7422 17.5315 22.0398 17.5315 22.3807C17.5315 22.7187 17.469 23.0142 17.344 23.267C17.2204 23.5199 17.0471 23.7166 16.8241 23.8572C16.6025 23.9979 16.344 24.0682 16.0486 24.0682ZM16.0486 23.6165C16.273 23.6165 16.4577 23.5589 16.6025 23.4439C16.7474 23.3288 16.8547 23.1776 16.9243 22.9901C16.9939 22.8026 17.0287 22.5994 17.0287 22.3807C17.0287 22.1619 16.9939 21.9581 16.9243 21.7692C16.8547 21.5803 16.7474 21.4276 16.6025 21.3111C16.4577 21.1946 16.273 21.1364 16.0486 21.1364C15.8241 21.1364 15.6395 21.1946 15.4946 21.3111C15.3497 21.4276 15.2425 21.5803 15.1729 21.7692C15.1032 21.9581 15.0684 22.1619 15.0684 22.3807C15.0684 22.5994 15.1032 22.8026 15.1729 22.9901C15.2425 23.1776 15.3497 23.3288 15.4946 23.4439C15.6395 23.5589 15.8241 23.6165 16.0486 23.6165ZM18.2991 24V20.7273H18.7849V21.2386H18.8275C18.8957 21.0639 19.0058 20.9283 19.1578 20.8317C19.3097 20.7337 19.4923 20.6847 19.7053 20.6847C19.9213 20.6847 20.1009 20.7337 20.2444 20.8317C20.3893 20.9283 20.5022 21.0639 20.5832 21.2386H20.6173C20.7011 21.0696 20.8268 20.9354 20.9944 20.8359C21.162 20.7351 21.363 20.6847 21.5974 20.6847C21.89 20.6847 22.1294 20.7763 22.3154 20.9595C22.5015 21.1413 22.5945 21.4247 22.5945 21.8097V24H22.0917V21.8097C22.0917 21.5682 22.0257 21.3956 21.8936 21.2919C21.7615 21.1882 21.6059 21.1364 21.4269 21.1364C21.1968 21.1364 21.0186 21.206 20.8921 21.3452C20.7657 21.483 20.7025 21.6577 20.7025 21.8693V24H20.1911V21.7585C20.1911 21.5724 20.1308 21.4226 20.01 21.3089C19.8893 21.1939 19.7338 21.1364 19.5434 21.1364C19.4127 21.1364 19.2906 21.1712 19.1769 21.2408C19.0647 21.3104 18.9738 21.407 18.9042 21.5305C18.836 21.6527 18.8019 21.794 18.8019 21.9545V24H18.2991ZM23.5139 24V20.7273H24.0168V24H23.5139ZM23.7696 20.1818C23.6716 20.1818 23.5871 20.1484 23.5161 20.0817C23.4465 20.0149 23.4117 19.9347 23.4117 19.8409C23.4117 19.7472 23.4465 19.6669 23.5161 19.6001C23.5871 19.5334 23.6716 19.5 23.7696 19.5C23.8676 19.5 23.9514 19.5334 24.021 19.6001C24.0921 19.6669 24.1276 19.7472 24.1276 19.8409C24.1276 19.9347 24.0921 20.0149 24.021 20.0817C23.9514 20.1484 23.8676 20.1818 23.7696 20.1818ZM26.1736 24.0682C25.9008 24.0682 25.6601 23.9993 25.4513 23.8615C25.2425 23.7223 25.0791 23.5263 24.9612 23.2734C24.8433 23.0192 24.7844 22.7188 24.7844 22.3722C24.7844 22.0284 24.8433 21.7301 24.9612 21.4773C25.0791 21.2244 25.2432 21.0291 25.4534 20.8913C25.6636 20.7536 25.9065 20.6847 26.1821 20.6847C26.3952 20.6847 26.5635 20.7202 26.6871 20.7912C26.8121 20.8608 26.9072 20.9403 26.9726 21.0298C27.0393 21.1179 27.0912 21.1903 27.1281 21.2472H27.1707V19.6364H27.6736V24H27.1878V23.4972H27.1281C27.0912 23.5568 27.0386 23.6321 26.9704 23.723C26.9023 23.8125 26.805 23.8928 26.6785 23.9638C26.5521 24.0334 26.3838 24.0682 26.1736 24.0682ZM26.2417 23.6165C26.4434 23.6165 26.6139 23.5639 26.7531 23.4588C26.8923 23.3523 26.9981 23.2053 27.0706 23.0178C27.143 22.8288 27.1792 22.6108 27.1792 22.3636C27.1792 22.1193 27.1437 21.9055 27.0727 21.7223C27.0017 21.5376 26.8966 21.3942 26.7574 21.2919C26.6182 21.1882 26.4463 21.1364 26.2417 21.1364C26.0287 21.1364 25.8511 21.1911 25.7091 21.3004C25.5684 21.4084 25.4626 21.5554 25.3916 21.7415C25.322 21.9261 25.2872 22.1335 25.2872 22.3636C25.2872 22.5966 25.3227 22.8082 25.3937 22.9986C25.4662 23.1875 25.5727 23.3381 25.7133 23.4503C25.8554 23.5611 26.0315 23.6165 26.2417 23.6165ZM29.6274 24.0767C29.42 24.0767 29.2318 24.0376 29.0628 23.9595C28.8937 23.88 28.7595 23.7656 28.6601 23.6165C28.5606 23.4659 28.5109 23.2841 28.5109 23.071C28.5109 22.8835 28.5479 22.7315 28.6217 22.6151C28.6956 22.4972 28.7943 22.4048 28.9179 22.3381C29.0415 22.2713 29.1778 22.2216 29.327 22.1889C29.4775 22.1548 29.6288 22.1278 29.7808 22.108C29.9797 22.0824 30.1409 22.0632 30.2645 22.0504C30.3895 22.0362 30.4804 22.0128 30.5372 21.9801C30.5954 21.9474 30.6246 21.8906 30.6246 21.8097V21.7926C30.6246 21.5824 30.567 21.419 30.452 21.3026C30.3383 21.1861 30.1657 21.1278 29.9342 21.1278C29.6942 21.1278 29.5059 21.1804 29.3696 21.2855C29.2332 21.3906 29.1373 21.5028 29.0819 21.6222L28.6047 21.4517C28.6899 21.2528 28.8035 21.098 28.9456 20.9872C29.089 20.875 29.2453 20.7969 29.4143 20.7528C29.5848 20.7074 29.7524 20.6847 29.9172 20.6847C30.0223 20.6847 30.143 20.6974 30.2794 20.723C30.4172 20.7472 30.55 20.7976 30.6778 20.8743C30.8071 20.951 30.9143 21.0668 30.9996 21.2216C31.0848 21.3764 31.1274 21.5838 31.1274 21.8438V24H30.6246V23.5568H30.599C30.5649 23.6278 30.5081 23.7038 30.4285 23.7848C30.349 23.8658 30.2432 23.9347 30.1111 23.9915C29.979 24.0483 29.8177 24.0767 29.6274 24.0767ZM29.7041 23.625C29.903 23.625 30.0706 23.5859 30.2069 23.5078C30.3447 23.4297 30.4484 23.3288 30.518 23.2053C30.589 23.0817 30.6246 22.9517 30.6246 22.8153V22.3551C30.6032 22.3807 30.5564 22.4041 30.4839 22.4254C30.4129 22.4453 30.3305 22.4631 30.2368 22.4787C30.1444 22.4929 30.0542 22.5057 29.9662 22.517C29.8795 22.527 29.8092 22.5355 29.7552 22.5426C29.6246 22.5597 29.5024 22.5874 29.3888 22.6257C29.2765 22.6626 29.1856 22.7187 29.116 22.794C29.0479 22.8679 29.0138 22.9687 29.0138 23.0966C29.0138 23.2713 29.0784 23.4034 29.2077 23.4929C29.3383 23.581 29.5038 23.625 29.7041 23.625Z" fill="black"/>
</g>
<defs>
<clipPath id="clip0_2850_2">
<rect width="36" height="36" fill="white" transform="matrix(1 0 0 -1 0 36)"/>
</clipPath>
</defs>
</svg>
