<svg width="36" height="36" viewBox="0 0 36 36" fill="none" xmlns="http://www.w3.org/2000/svg">
<g id="Size=36, Color=Black, Type=noImg" clip-path="url(#clip0_2841_2)">
<path id="Selecciona una comida" d="M5.49876 13.7273C5.47319 13.5114 5.3695 13.3438 5.18768 13.2244C5.00586 13.1051 4.78285 13.0455 4.51864 13.0455C4.32546 13.0455 4.15643 13.0767 4.01154 13.1392C3.86808 13.2017 3.75586 13.2876 3.67489 13.397C3.59535 13.5064 3.55558 13.6307 3.55558 13.7699C3.55558 13.8864 3.58327 13.9865 3.63867 14.0703C3.69549 14.1527 3.76793 14.2216 3.856 14.277C3.94407 14.331 4.0364 14.3757 4.13299 14.4112C4.22958 14.4453 4.31836 14.473 4.39933 14.4943L4.84251 14.6136C4.95614 14.6435 5.08256 14.6847 5.22177 14.7372C5.36239 14.7898 5.49663 14.8615 5.62447 14.9524C5.75373 15.0419 5.86026 15.157 5.94407 15.2976C6.02788 15.4382 6.06978 15.6108 6.06978 15.8153C6.06978 16.0511 6.00799 16.2642 5.88441 16.4545C5.76225 16.6449 5.58327 16.7962 5.34748 16.9084C5.1131 17.0206 4.8283 17.0767 4.49308 17.0767C4.18058 17.0767 3.90998 17.0263 3.68129 16.9254C3.45401 16.8246 3.27504 16.6839 3.14435 16.5036C3.01509 16.3232 2.94194 16.1136 2.92489 15.875H3.47035C3.48455 16.0398 3.53995 16.1761 3.63654 16.2841C3.73455 16.3906 3.85813 16.4702 4.00728 16.5227C4.15785 16.5739 4.31978 16.5994 4.49308 16.5994C4.69478 16.5994 4.87589 16.5668 5.0364 16.5014C5.19691 16.4347 5.32404 16.3423 5.41779 16.2244C5.51154 16.1051 5.55842 15.9659 5.55842 15.8068C5.55842 15.6619 5.51793 15.544 5.43697 15.4531C5.356 15.3622 5.24947 15.2884 5.11737 15.2315C4.98526 15.1747 4.84251 15.125 4.6891 15.0824L4.15217 14.929C3.81126 14.831 3.54137 14.6911 3.34251 14.5092C3.14364 14.3274 3.04421 14.0895 3.04421 13.7955C3.04421 13.5511 3.11026 13.3381 3.24237 13.1562C3.37589 12.973 3.55487 12.831 3.7793 12.7301C4.00515 12.6278 4.25728 12.5767 4.53569 12.5767C4.81694 12.5767 5.06694 12.6271 5.28569 12.728C5.50444 12.8274 5.67773 12.9638 5.80558 13.1371C5.93484 13.3104 6.00302 13.5071 6.01012 13.7273H5.49876ZM8.24254 17.0682C7.9272 17.0682 7.65518 16.9986 7.42649 16.8594C7.19922 16.7188 7.02379 16.5227 6.90021 16.2713C6.77805 16.0185 6.71697 15.7244 6.71697 15.3892C6.71697 15.054 6.77805 14.7585 6.90021 14.5028C7.02379 14.2457 7.19567 14.0455 7.41584 13.902C7.63743 13.7571 7.89595 13.6847 8.19141 13.6847C8.36186 13.6847 8.53018 13.7131 8.69638 13.7699C8.86257 13.8267 9.01385 13.919 9.15021 14.0469C9.28658 14.1733 9.39524 14.3409 9.47621 14.5497C9.55717 14.7585 9.59766 15.0156 9.59766 15.321V15.5341H7.07493V15.0994H9.08629C9.08629 14.9148 9.04936 14.75 8.9755 14.6051C8.90305 14.4602 8.79936 14.3459 8.66442 14.2621C8.53089 14.1783 8.37322 14.1364 8.19141 14.1364C7.99112 14.1364 7.81783 14.1861 7.67152 14.2855C7.52663 14.3835 7.41513 14.5114 7.337 14.669C7.25888 14.8267 7.21982 14.9957 7.21982 15.1761V15.4659C7.21982 15.7131 7.26243 15.9226 7.34766 16.0945C7.4343 16.2649 7.55433 16.3949 7.70774 16.4844C7.86115 16.5724 8.03942 16.6165 8.24254 16.6165C8.37464 16.6165 8.49396 16.598 8.6005 16.5611C8.70845 16.5227 8.80149 16.4659 8.87962 16.3906C8.95774 16.3139 9.01811 16.2187 9.06072 16.1051L9.54652 16.2415C9.49538 16.4062 9.40945 16.5511 9.28871 16.6761C9.16797 16.7997 9.01882 16.8963 8.84126 16.9659C8.66371 17.0341 8.46413 17.0682 8.24254 17.0682ZM10.8654 12.6364V17H10.3626V12.6364H10.8654ZM13.1586 17.0682C12.8432 17.0682 12.5712 16.9986 12.3425 16.8594C12.1152 16.7188 11.9398 16.5227 11.8162 16.2713C11.6941 16.0185 11.633 15.7244 11.633 15.3892C11.633 15.054 11.6941 14.7585 11.8162 14.5028C11.9398 14.2457 12.1117 14.0455 12.3319 13.902C12.5534 13.7571 12.812 13.6847 13.1074 13.6847C13.2779 13.6847 13.4462 13.7131 13.6124 13.7699C13.7786 13.8267 13.9299 13.919 14.0662 14.0469C14.2026 14.1733 14.3113 14.3409 14.3922 14.5497C14.4732 14.7585 14.5137 15.0156 14.5137 15.321V15.5341H11.9909V15.0994H14.0023C14.0023 14.9148 13.9654 14.75 13.8915 14.6051C13.8191 14.4602 13.7154 14.3459 13.5804 14.2621C13.4469 14.1783 13.2892 14.1364 13.1074 14.1364C12.9071 14.1364 12.7338 14.1861 12.5875 14.2855C12.4426 14.3835 12.3311 14.5114 12.253 14.669C12.1749 14.8267 12.1358 14.9957 12.1358 15.1761V15.4659C12.1358 15.7131 12.1784 15.9226 12.2637 16.0945C12.3503 16.2649 12.4703 16.3949 12.6238 16.4844C12.7772 16.5724 12.9554 16.6165 13.1586 16.6165C13.2907 16.6165 13.41 16.598 13.5165 16.5611C13.6245 16.5227 13.7175 16.4659 13.7956 16.3906C13.8738 16.3139 13.9341 16.2187 13.9767 16.1051L14.4625 16.2415C14.4114 16.4062 14.3255 16.5511 14.2047 16.6761C14.084 16.7997 13.9348 16.8963 13.7573 16.9659C13.5797 17.0341 13.3801 17.0682 13.1586 17.0682ZM16.6081 17.0682C16.3013 17.0682 16.0371 16.9957 15.8155 16.8509C15.5939 16.706 15.4235 16.5064 15.3042 16.2521C15.1848 15.9979 15.1252 15.7074 15.1252 15.3807C15.1252 15.0483 15.1863 14.755 15.3084 14.5007C15.432 14.245 15.6039 14.0455 15.824 13.902C16.0456 13.7571 16.3042 13.6847 16.5996 13.6847C16.8297 13.6847 17.0371 13.7273 17.2218 13.8125C17.4064 13.8977 17.5577 14.017 17.6756 14.1705C17.7935 14.3239 17.8667 14.5028 17.8951 14.7074H17.3922C17.3539 14.5582 17.2686 14.4261 17.1365 14.3111C17.0059 14.1946 16.8297 14.1364 16.6081 14.1364C16.4121 14.1364 16.2402 14.1875 16.0925 14.2898C15.9462 14.3906 15.8319 14.5334 15.7495 14.718C15.6685 14.9013 15.628 15.1165 15.628 15.3636C15.628 15.6165 15.6678 15.8366 15.7473 16.0241C15.8283 16.2116 15.9419 16.3572 16.0882 16.4609C16.236 16.5646 16.4093 16.6165 16.6081 16.6165C16.7388 16.6165 16.8574 16.5938 16.964 16.5483C17.0705 16.5028 17.1607 16.4375 17.2346 16.3523C17.3084 16.267 17.361 16.1648 17.3922 16.0455H17.8951C17.8667 16.2386 17.7963 16.4126 17.6841 16.5675C17.5733 16.7209 17.4263 16.843 17.2431 16.9339C17.0613 17.0234 16.8496 17.0682 16.6081 17.0682ZM19.9597 17.0682C19.6529 17.0682 19.3887 16.9957 19.1671 16.8509C18.9455 16.706 18.775 16.5064 18.6557 16.2521C18.5364 15.9979 18.4767 15.7074 18.4767 15.3807C18.4767 15.0483 18.5378 14.755 18.66 14.5007C18.7836 14.245 18.9554 14.0455 19.1756 13.902C19.3972 13.7571 19.6557 13.6847 19.9512 13.6847C20.1813 13.6847 20.3887 13.7273 20.5733 13.8125C20.758 13.8977 20.9093 14.017 21.0272 14.1705C21.1451 14.3239 21.2182 14.5028 21.2466 14.7074H20.7438C20.7054 14.5582 20.6202 14.4261 20.4881 14.3111C20.3574 14.1946 20.1813 14.1364 19.9597 14.1364C19.7637 14.1364 19.5918 14.1875 19.4441 14.2898C19.2978 14.3906 19.1834 14.5334 19.101 14.718C19.0201 14.9013 18.9796 15.1165 18.9796 15.3636C18.9796 15.6165 19.0194 15.8366 19.0989 16.0241C19.1799 16.2116 19.2935 16.3572 19.4398 16.4609C19.5875 16.5646 19.7608 16.6165 19.9597 16.6165C20.0904 16.6165 20.209 16.5938 20.3155 16.5483C20.4221 16.5028 20.5123 16.4375 20.5861 16.3523C20.66 16.267 20.7125 16.1648 20.7438 16.0455H21.2466C21.2182 16.2386 21.1479 16.4126 21.0357 16.5675C20.9249 16.7209 20.7779 16.843 20.5946 16.9339C20.4128 17.0234 20.2012 17.0682 19.9597 17.0682ZM21.9817 17V13.7273H22.4846V17H21.9817ZM22.2374 13.1818C22.1394 13.1818 22.0549 13.1484 21.9838 13.0817C21.9142 13.0149 21.8794 12.9347 21.8794 12.8409C21.8794 12.7472 21.9142 12.6669 21.9838 12.6001C22.0549 12.5334 22.1394 12.5 22.2374 12.5C22.3354 12.5 22.4192 12.5334 22.4888 12.6001C22.5598 12.6669 22.5953 12.7472 22.5953 12.8409C22.5953 12.9347 22.5598 13.0149 22.4888 13.0817C22.4192 13.1484 22.3354 13.1818 22.2374 13.1818ZM24.7351 17.0682C24.4396 17.0682 24.1804 16.9979 23.9574 16.8572C23.7358 16.7166 23.5625 16.5199 23.4375 16.267C23.3139 16.0142 23.2521 15.7187 23.2521 15.3807C23.2521 15.0398 23.3139 14.7422 23.4375 14.4879C23.5625 14.2337 23.7358 14.0362 23.9574 13.8956C24.1804 13.755 24.4396 13.6847 24.7351 13.6847C25.0305 13.6847 25.2891 13.755 25.5107 13.8956C25.7337 14.0362 25.907 14.2337 26.0305 14.4879C26.1555 14.7422 26.218 15.0398 26.218 15.3807C26.218 15.7187 26.1555 16.0142 26.0305 16.267C25.907 16.5199 25.7337 16.7166 25.5107 16.8572C25.2891 16.9979 25.0305 17.0682 24.7351 17.0682ZM24.7351 16.6165C24.9595 16.6165 25.1442 16.5589 25.2891 16.4439C25.4339 16.3288 25.5412 16.1776 25.6108 15.9901C25.6804 15.8026 25.7152 15.5994 25.7152 15.3807C25.7152 15.1619 25.6804 14.9581 25.6108 14.7692C25.5412 14.5803 25.4339 14.4276 25.2891 14.3111C25.1442 14.1946 24.9595 14.1364 24.7351 14.1364C24.5107 14.1364 24.326 14.1946 24.1811 14.3111C24.0362 14.4276 23.929 14.5803 23.8594 14.7692C23.7898 14.9581 23.755 15.1619 23.755 15.3807C23.755 15.5994 23.7898 15.8026 23.8594 15.9901C23.929 16.1776 24.0362 16.3288 24.1811 16.4439C24.326 16.5589 24.5107 16.6165 24.7351 16.6165ZM27.4885 15.0312V17H26.9856V13.7273H27.4714V14.2386H27.514C27.5907 14.0724 27.7072 13.9389 27.8635 13.8381C28.0197 13.7358 28.2214 13.6847 28.4686 13.6847C28.6902 13.6847 28.8841 13.7301 29.0502 13.821C29.2164 13.9105 29.3457 14.0469 29.438 14.2301C29.5304 14.4119 29.5765 14.642 29.5765 14.9205V17H29.0737V14.9545C29.0737 14.6974 29.0069 14.4972 28.8734 14.3537C28.7399 14.2088 28.5566 14.1364 28.3237 14.1364C28.1632 14.1364 28.0197 14.1712 27.8933 14.2408C27.7683 14.3104 27.6696 14.4119 27.5971 14.5455C27.5247 14.679 27.4885 14.8409 27.4885 15.0312ZM31.4585 17.0767C31.2511 17.0767 31.0629 17.0376 30.8938 16.9595C30.7248 16.88 30.5906 16.7656 30.4911 16.6165C30.3917 16.4659 30.342 16.2841 30.342 16.071C30.342 15.8835 30.3789 15.7315 30.4528 15.6151C30.5266 15.4972 30.6254 15.4048 30.7489 15.3381C30.8725 15.2713 31.0089 15.2216 31.158 15.1889C31.3086 15.1548 31.4599 15.1278 31.6119 15.108C31.8107 15.0824 31.9719 15.0632 32.0955 15.0504C32.2205 15.0362 32.3114 15.0128 32.3683 14.9801C32.4265 14.9474 32.4556 14.8906 32.4556 14.8097V14.7926C32.4556 14.5824 32.3981 14.419 32.283 14.3026C32.1694 14.1861 31.9968 14.1278 31.7653 14.1278C31.5252 14.1278 31.337 14.1804 31.2006 14.2855C31.0643 14.3906 30.9684 14.5028 30.913 14.6222L30.4357 14.4517C30.521 14.2528 30.6346 14.098 30.7766 13.9872C30.9201 13.875 31.0763 13.7969 31.2454 13.7528C31.4158 13.7074 31.5835 13.6847 31.7482 13.6847C31.8533 13.6847 31.9741 13.6974 32.1104 13.723C32.2482 13.7472 32.381 13.7976 32.5089 13.8743C32.6381 13.951 32.7454 14.0668 32.8306 14.2216C32.9158 14.3764 32.9585 14.5838 32.9585 14.8438V17H32.4556V16.5568H32.43C32.396 16.6278 32.3391 16.7038 32.2596 16.7848C32.18 16.8658 32.0742 16.9347 31.9421 16.9915C31.81 17.0483 31.6488 17.0767 31.4585 17.0767ZM31.5352 16.625C31.734 16.625 31.9016 16.5859 32.038 16.5078C32.1758 16.4297 32.2795 16.3288 32.3491 16.2053C32.4201 16.0817 32.4556 15.9517 32.4556 15.8153V15.3551C32.4343 15.3807 32.3874 15.4041 32.315 15.4254C32.244 15.4453 32.1616 15.4631 32.0678 15.4787C31.9755 15.4929 31.8853 15.5057 31.7972 15.517C31.7106 15.527 31.6403 15.5355 31.5863 15.5426C31.4556 15.5597 31.3335 15.5874 31.2198 15.6257C31.1076 15.6626 31.0167 15.7187 30.9471 15.794C30.8789 15.8679 30.8448 15.9687 30.8448 16.0966C30.8448 16.2713 30.9094 16.4034 31.0387 16.4929C31.1694 16.581 31.3349 16.625 31.5352 16.625ZM4.15163 22.6619V20.7273H4.65447V24H4.15163V23.446H4.11754C4.04084 23.6122 3.92152 23.7536 3.75959 23.87C3.59766 23.9851 3.39311 24.0426 3.14595 24.0426C2.94141 24.0426 2.75959 23.9979 2.6005 23.9084C2.44141 23.8175 2.31641 23.6811 2.2255 23.4993C2.13459 23.3161 2.08913 23.0852 2.08913 22.8068V20.7273H2.59197V22.7727C2.59197 23.0114 2.65874 23.2017 2.79226 23.3438C2.9272 23.4858 3.09908 23.5568 3.30788 23.5568C3.43288 23.5568 3.56001 23.5249 3.68928 23.4609C3.81996 23.397 3.92933 23.299 4.0174 23.1669C4.10689 23.0348 4.15163 22.8665 4.15163 22.6619ZM6.0783 22.0312V24H5.57546V20.7273H6.06126V21.2386H6.10387C6.18058 21.0724 6.29705 20.9389 6.4533 20.8381C6.60955 20.7358 6.81126 20.6847 7.05842 20.6847C7.28001 20.6847 7.4739 20.7301 7.64009 20.821C7.80629 20.9105 7.93555 21.0469 8.02788 21.2301C8.12021 21.4119 8.16637 21.642 8.16637 21.9205V24H7.66353V21.9545C7.66353 21.6974 7.59677 21.4972 7.46325 21.3537C7.32972 21.2088 7.14648 21.1364 6.91353 21.1364C6.75302 21.1364 6.60955 21.1712 6.48313 21.2408C6.35813 21.3104 6.25941 21.4119 6.18697 21.5455C6.11452 21.679 6.0783 21.8409 6.0783 22.0312ZM10.0483 24.0767C9.84091 24.0767 9.6527 24.0376 9.48366 23.9595C9.31463 23.88 9.1804 23.7656 9.08097 23.6165C8.98153 23.4659 8.93182 23.2841 8.93182 23.071C8.93182 22.8835 8.96875 22.7315 9.04261 22.6151C9.11648 22.4972 9.2152 22.4048 9.33878 22.3381C9.46236 22.2713 9.59872 22.2216 9.74787 22.1889C9.89844 22.1548 10.0497 22.1278 10.2017 22.108C10.4006 22.0824 10.5618 22.0632 10.6854 22.0504C10.8104 22.0362 10.9013 22.0128 10.9581 21.9801C11.0163 21.9474 11.0455 21.8906 11.0455 21.8097V21.7926C11.0455 21.5824 10.9879 21.419 10.8729 21.3026C10.7592 21.1861 10.5866 21.1278 10.3551 21.1278C10.1151 21.1278 9.92685 21.1804 9.79048 21.2855C9.65412 21.3906 9.55824 21.5028 9.50284 21.6222L9.02557 21.4517C9.1108 21.2528 9.22443 21.098 9.36648 20.9872C9.50994 20.875 9.66619 20.7969 9.83523 20.7528C10.0057 20.7074 10.1733 20.6847 10.3381 20.6847C10.4432 20.6847 10.5639 20.6974 10.7003 20.723C10.8381 20.7472 10.9709 20.7976 11.0987 20.8743C11.228 20.951 11.3352 21.0668 11.4205 21.2216C11.5057 21.3764 11.5483 21.5838 11.5483 21.8438V24H11.0455V23.5568H11.0199C10.9858 23.6278 10.929 23.7038 10.8494 23.7848C10.7699 23.8658 10.6641 23.9347 10.532 23.9915C10.3999 24.0483 10.2386 24.0767 10.0483 24.0767ZM10.125 23.625C10.3239 23.625 10.4915 23.5859 10.6278 23.5078C10.7656 23.4297 10.8693 23.3288 10.9389 23.2053C11.0099 23.0817 11.0455 22.9517 11.0455 22.8153V22.3551C11.0241 22.3807 10.9773 22.4041 10.9048 22.4254C10.8338 22.4453 10.7514 22.4631 10.6577 22.4787C10.5653 22.4929 10.4751 22.5057 10.3871 22.517C10.3004 22.527 10.2301 22.5355 10.1761 22.5426C10.0455 22.5597 9.9233 22.5874 9.80966 22.6257C9.69744 22.6626 9.60653 22.7187 9.53693 22.794C9.46875 22.8679 9.43466 22.9687 9.43466 23.0966C9.43466 23.2713 9.49929 23.4034 9.62855 23.4929C9.75923 23.581 9.92472 23.625 10.125 23.625ZM15.4831 24.0682C15.1763 24.0682 14.9121 23.9957 14.6905 23.8509C14.4689 23.706 14.2985 23.5064 14.1792 23.2521C14.0598 22.9979 14.0002 22.7074 14.0002 22.3807C14.0002 22.0483 14.0613 21.755 14.1834 21.5007C14.307 21.245 14.4789 21.0455 14.699 20.902C14.9206 20.7571 15.1792 20.6847 15.4746 20.6847C15.7047 20.6847 15.9121 20.7273 16.0968 20.8125C16.2814 20.8977 16.4327 21.017 16.5506 21.1705C16.6685 21.3239 16.7417 21.5028 16.7701 21.7074H16.2672C16.2289 21.5582 16.1436 21.4261 16.0115 21.3111C15.8809 21.1946 15.7047 21.1364 15.4831 21.1364C15.2871 21.1364 15.1152 21.1875 14.9675 21.2898C14.8212 21.3906 14.7069 21.5334 14.6245 21.718C14.5435 21.9013 14.503 22.1165 14.503 22.3636C14.503 22.6165 14.5428 22.8366 14.6223 23.0241C14.7033 23.2116 14.8169 23.3572 14.9632 23.4609C15.111 23.5646 15.2843 23.6165 15.4831 23.6165C15.6138 23.6165 15.7324 23.5938 15.839 23.5483C15.9455 23.5028 16.0357 23.4375 16.1096 23.3523C16.1834 23.267 16.236 23.1648 16.2672 23.0455H16.7701C16.7417 23.2386 16.6713 23.4126 16.5591 23.5675C16.4483 23.7209 16.3013 23.843 16.1181 23.9339C15.9363 24.0234 15.7246 24.0682 15.4831 24.0682ZM18.8347 24.0682C18.5392 24.0682 18.28 23.9979 18.057 23.8572C17.8354 23.7166 17.6621 23.5199 17.5371 23.267C17.4135 23.0142 17.3517 22.7187 17.3517 22.3807C17.3517 22.0398 17.4135 21.7422 17.5371 21.4879C17.6621 21.2337 17.8354 21.0362 18.057 20.8956C18.28 20.755 18.5392 20.6847 18.8347 20.6847C19.1301 20.6847 19.3887 20.755 19.6103 20.8956C19.8333 21.0362 20.0066 21.2337 20.1301 21.4879C20.2551 21.7422 20.3176 22.0398 20.3176 22.3807C20.3176 22.7187 20.2551 23.0142 20.1301 23.267C20.0066 23.5199 19.8333 23.7166 19.6103 23.8572C19.3887 23.9979 19.1301 24.0682 18.8347 24.0682ZM18.8347 23.6165C19.0591 23.6165 19.2438 23.5589 19.3887 23.4439C19.5336 23.3288 19.6408 23.1776 19.7104 22.9901C19.78 22.8026 19.8148 22.5994 19.8148 22.3807C19.8148 22.1619 19.78 21.9581 19.7104 21.7692C19.6408 21.5803 19.5336 21.4276 19.3887 21.3111C19.2438 21.1946 19.0591 21.1364 18.8347 21.1364C18.6103 21.1364 18.4256 21.1946 18.2807 21.3111C18.1358 21.4276 18.0286 21.5803 17.959 21.7692C17.8894 21.9581 17.8546 22.1619 17.8546 22.3807C17.8546 22.5994 17.8894 22.8026 17.959 22.9901C18.0286 23.1776 18.1358 23.3288 18.2807 23.4439C18.4256 23.5589 18.6103 23.6165 18.8347 23.6165ZM21.0852 24V20.7273H21.571V21.2386H21.6136C21.6818 21.0639 21.7919 20.9283 21.9439 20.8317C22.0959 20.7337 22.2784 20.6847 22.4915 20.6847C22.7074 20.6847 22.8871 20.7337 23.0305 20.8317C23.1754 20.9283 23.2884 21.0639 23.3693 21.2386H23.4034C23.4872 21.0696 23.6129 20.9354 23.7805 20.8359C23.9482 20.7351 24.1491 20.6847 24.3835 20.6847C24.6761 20.6847 24.9155 20.7763 25.1016 20.9595C25.2876 21.1413 25.3807 21.4247 25.3807 21.8097V24H24.8778V21.8097C24.8778 21.5682 24.8118 21.3956 24.6797 21.2919C24.5476 21.1882 24.392 21.1364 24.2131 21.1364C23.983 21.1364 23.8047 21.206 23.6783 21.3452C23.5518 21.483 23.4886 21.6577 23.4886 21.8693V24H22.9773V21.7585C22.9773 21.5724 22.9169 21.4226 22.7962 21.3089C22.6754 21.1939 22.5199 21.1364 22.3295 21.1364C22.1989 21.1364 22.0767 21.1712 21.9631 21.2408C21.8509 21.3104 21.7599 21.407 21.6903 21.5305C21.6222 21.6527 21.5881 21.794 21.5881 21.9545V24H21.0852ZM26.3001 24V20.7273H26.8029V24H26.3001ZM26.5558 20.1818C26.4577 20.1818 26.3732 20.1484 26.3022 20.0817C26.2326 20.0149 26.1978 19.9347 26.1978 19.8409C26.1978 19.7472 26.2326 19.6669 26.3022 19.6001C26.3732 19.5334 26.4577 19.5 26.5558 19.5C26.6538 19.5 26.7376 19.5334 26.8072 19.6001C26.8782 19.6669 26.9137 19.7472 26.9137 19.8409C26.9137 19.9347 26.8782 20.0149 26.8072 20.0817C26.7376 20.1484 26.6538 20.1818 26.5558 20.1818ZM28.9597 24.0682C28.687 24.0682 28.4462 23.9993 28.2374 23.8615C28.0286 23.7223 27.8652 23.5263 27.7473 23.2734C27.6294 23.0192 27.5705 22.7188 27.5705 22.3722C27.5705 22.0284 27.6294 21.7301 27.7473 21.4773C27.8652 21.2244 28.0293 21.0291 28.2395 20.8913C28.4498 20.7536 28.6926 20.6847 28.9682 20.6847C29.1813 20.6847 29.3496 20.7202 29.4732 20.7912C29.5982 20.8608 29.6934 20.9403 29.7587 21.0298C29.8255 21.1179 29.8773 21.1903 29.9142 21.2472H29.9569V19.6364H30.4597V24H29.9739V23.4972H29.9142C29.8773 23.5568 29.8248 23.6321 29.7566 23.723C29.6884 23.8125 29.5911 23.8928 29.4647 23.9638C29.3382 24.0334 29.1699 24.0682 28.9597 24.0682ZM29.0279 23.6165C29.2296 23.6165 29.4 23.5639 29.5392 23.4588C29.6784 23.3523 29.7843 23.2053 29.8567 23.0178C29.9292 22.8288 29.9654 22.6108 29.9654 22.3636C29.9654 22.1193 29.9299 21.9055 29.8588 21.7223C29.7878 21.5376 29.6827 21.3942 29.5435 21.2919C29.4043 21.1882 29.2324 21.1364 29.0279 21.1364C28.8148 21.1364 28.6373 21.1911 28.4952 21.3004C28.3546 21.4084 28.2488 21.5554 28.1777 21.7415C28.1081 21.9261 28.0733 22.1335 28.0733 22.3636C28.0733 22.5966 28.1088 22.8082 28.1799 22.9986C28.2523 23.1875 28.3588 23.3381 28.4995 23.4503C28.6415 23.5611 28.8176 23.6165 29.0279 23.6165ZM32.4135 24.0767C32.2061 24.0767 32.0179 24.0376 31.8489 23.9595C31.6799 23.88 31.5456 23.7656 31.4462 23.6165C31.3468 23.4659 31.2971 23.2841 31.2971 23.071C31.2971 22.8835 31.334 22.7315 31.4078 22.6151C31.4817 22.4972 31.5804 22.4048 31.704 22.3381C31.8276 22.2713 31.964 22.2216 32.1131 22.1889C32.2637 22.1548 32.415 22.1278 32.5669 22.108C32.7658 22.0824 32.927 22.0632 33.0506 22.0504C33.1756 22.0362 33.2665 22.0128 33.3233 21.9801C33.3816 21.9474 33.4107 21.8906 33.4107 21.8097V21.7926C33.4107 21.5824 33.3532 21.419 33.2381 21.3026C33.1245 21.1861 32.9519 21.1278 32.7203 21.1278C32.4803 21.1278 32.2921 21.1804 32.1557 21.2855C32.0194 21.3906 31.9235 21.5028 31.8681 21.6222L31.3908 21.4517C31.476 21.2528 31.5897 21.098 31.7317 20.9872C31.8752 20.875 32.0314 20.7969 32.2005 20.7528C32.3709 20.7074 32.5385 20.6847 32.7033 20.6847C32.8084 20.6847 32.9292 20.6974 33.0655 20.723C33.2033 20.7472 33.3361 20.7976 33.464 20.8743C33.5932 20.951 33.7005 21.0668 33.7857 21.2216C33.8709 21.3764 33.9135 21.5838 33.9135 21.8438V24H33.4107V23.5568H33.3851C33.351 23.6278 33.2942 23.7038 33.2147 23.7848C33.1351 23.8658 33.0293 23.9347 32.8972 23.9915C32.7651 24.0483 32.6039 24.0767 32.4135 24.0767ZM32.4902 23.625C32.6891 23.625 32.8567 23.5859 32.9931 23.5078C33.1309 23.4297 33.2346 23.3288 33.3042 23.2053C33.3752 23.0817 33.4107 22.9517 33.4107 22.8153V22.3551C33.3894 22.3807 33.3425 22.4041 33.2701 22.4254C33.199 22.4453 33.1167 22.4631 33.0229 22.4787C32.9306 22.4929 32.8404 22.5057 32.7523 22.517C32.6657 22.527 32.5953 22.5355 32.5414 22.5426C32.4107 22.5597 32.2885 22.5874 32.1749 22.6257C32.0627 22.6626 31.9718 22.7187 31.9022 22.794C31.834 22.8679 31.7999 22.9687 31.7999 23.0966C31.7999 23.2713 31.8645 23.4034 31.9938 23.4929C32.1245 23.581 32.29 23.625 32.4902 23.625Z" fill="black"/>
</g>
<defs>
<clipPath id="clip0_2841_2">
<rect width="36" height="36" fill="white" transform="matrix(1 0 0 -1 0 36)"/>
</clipPath>
</defs>
</svg>
