<svg width="12" height="12" viewBox="0 0 12 12" fill="none" xmlns="http://www.w3.org/2000/svg">
<g clip-path="url(#clip0_2553_1209)">
<path fill-rule="evenodd" clip-rule="evenodd" d="M2.20623 1.50089L10.6906 9.9853L10.6916 9.98445L10.6924 9.9853L9.9853 10.6924L8.30685 9.014C7.6784 9.3071 6.9166 9.5 6 9.5C2.204 9.5 1.06316 6.1915 1.05222 6.158L1 6L1.05271 5.842C1.05931 5.82085 1.51702 4.49272 2.81024 3.51735L1.5 2.20712L2.20623 1.50089ZM7.54335 8.25045L6.64475 7.35185C6.4488 7.4467 6.22995 7.5 6 7.5C5.179 7.5 4.5 6.821 4.5 6C4.5 5.77005 4.55333 5.5512 4.64816 5.35525L3.51816 4.22528C2.63449 4.83297 2.20768 5.6549 2.05828 6C2.30793 6.577 3.33887 8.5 6 8.5C6.592 8.5 7.10335 8.40485 7.54335 8.25045Z" fill="black"/>
<path d="M4.75011 2.63054C5.13055 2.54726 5.5463 2.5 6 2.5C9.796 2.5 10.9369 5.80849 10.9478 5.84199L11 5.99999L10.9473 6.15799C10.9422 6.17449 10.6624 6.98654 9.92555 7.80594L9.2297 7.11014C9.6229 6.66479 9.84295 6.22819 9.9417 5.99999C9.69205 5.42299 8.66115 3.5 6 3.5C5.87375 3.5 5.7512 3.50433 5.6322 3.51264L4.75011 2.63054Z" fill="black"/>
</g>
<defs>
<clipPath id="clip0_2553_1209">
<rect width="12" height="12" fill="white" transform="matrix(1 0 0 -1 0 12)"/>
</clipPath>
</defs>
</svg>
