<svg width="36" height="36" viewBox="0 0 36 36" fill="none" xmlns="http://www.w3.org/2000/svg">
<g clip-path="url(#clip0_2553_1215)">
<path fill-rule="evenodd" clip-rule="evenodd" d="M6.61869 4.50266L32.0719 29.9559L32.0746 29.9533L32.0772 29.9559L29.9559 32.0772L24.9205 27.042C23.0352 27.9213 20.7498 28.5 18 28.5C6.612 28.5 3.18948 18.5745 3.15666 18.474L3 18L3.15814 17.526C3.17794 17.4625 4.55106 13.4782 8.4307 10.552L4.5 6.62134L6.61869 4.50266ZM22.63 24.7513L19.9342 22.0555C19.3464 22.3401 18.6898 22.5 18 22.5C15.537 22.5 13.5 20.463 13.5 18C13.5 17.3101 13.66 16.6536 13.9445 16.0657L10.5545 12.6758C7.90347 14.4989 6.62305 16.9647 6.17485 18C6.9238 19.731 10.0166 25.5 18 25.5C19.776 25.5 21.31 25.2145 22.63 24.7513Z" fill="black"/>
<path d="M14.2503 7.89165C15.3917 7.64181 16.6389 7.50003 18 7.50003C29.388 7.50003 32.8106 17.4255 32.8434 17.526L33 18L32.8419 18.474C32.8265 18.5235 31.9872 20.9597 29.7767 23.4179L27.6891 21.3305C28.8687 19.9944 29.5289 18.6846 29.8251 18C29.0762 16.269 25.9835 10.5 18 10.5C17.6213 10.5 17.2536 10.513 16.8966 10.5379L14.2503 7.89165Z" fill="black"/>
</g>
<defs>
<clipPath id="clip0_2553_1215">
<rect width="36" height="36" fill="white" transform="matrix(1 0 0 -1 0 36)"/>
</clipPath>
</defs>
</svg>
