<svg width="36" height="36" viewBox="0 0 36 36" fill="none" xmlns="http://www.w3.org/2000/svg">
<g clip-path="url(#clip0_2553_1237)">
<path d="M18 0C9.81818 0 2.83091 7.464 0 18C2.83091 28.536 9.81818 36 18 36C26.1818 36 33.1691 28.536 36 18C33.1691 7.464 26.1818 0 18 0ZM18 30C13.4836 30 9.81818 24.624 9.81818 18C9.81818 11.376 13.4836 6 18 6C22.5164 6 26.1818 11.376 26.1818 18C26.1818 24.624 22.5164 30 18 30ZM18 10.8C15.2836 10.8 13.0909 14.016 13.0909 18C13.0909 21.984 15.2836 25.2 18 25.2C20.7164 25.2 22.9091 21.984 22.9091 18C22.9091 14.016 20.7164 10.8 18 10.8Z" fill="black"/>
</g>
<defs>
<clipPath id="clip0_2553_1237">
<rect width="36" height="36" fill="white" transform="matrix(1 0 0 -1 0 36)"/>
</clipPath>
</defs>
</svg>
