<svg width="12" height="12" viewBox="0 0 12 12" fill="none" xmlns="http://www.w3.org/2000/svg">
<g clip-path="url(#clip0_2553_1231)">
<path d="M6 0C3.27273 0 0.943636 2.488 0 6C0.943636 9.512 3.27273 12 6 12C8.72727 12 11.0564 9.512 12 6C11.0564 2.488 8.72727 0 6 0ZM6 10C4.49455 10 3.27273 8.208 3.27273 6C3.27273 3.792 4.49455 2 6 2C7.50545 2 8.72727 3.792 8.72727 6C8.72727 8.208 7.50545 10 6 10ZM6 3.6C5.09455 3.6 4.36364 4.672 4.36364 6C4.36364 7.328 5.09455 8.4 6 8.4C6.90545 8.4 7.63636 7.328 7.63636 6C7.63636 4.672 6.90545 3.6 6 3.6Z" fill="black"/>
</g>
<defs>
<clipPath id="clip0_2553_1231">
<rect width="12" height="12" fill="white" transform="matrix(1 0 0 -1 0 12)"/>
</clipPath>
</defs>
</svg>
