<svg width="24" height="24" viewBox="0 0 24 24" fill="none" xmlns="http://www.w3.org/2000/svg">
<g clip-path="url(#clip0_2553_1243)">
<path d="M12 0C6.54545 0 1.88727 4.976 0 12C1.88727 19.024 6.54545 24 12 24C17.4545 24 22.1127 19.024 24 12C22.1127 4.976 17.4545 0 12 0ZM12 20C8.98909 20 6.54545 16.416 6.54545 12C6.54545 7.584 8.98909 4 12 4C15.0109 4 17.4545 7.584 17.4545 12C17.4545 16.416 15.0109 20 12 20ZM12 7.2C10.1891 7.2 8.72727 9.344 8.72727 12C8.72727 14.656 10.1891 16.8 12 16.8C13.8109 16.8 15.2727 14.656 15.2727 12C15.2727 9.344 13.8109 7.2 12 7.2Z" fill="black"/>
</g>
<defs>
<clipPath id="clip0_2553_1243">
<rect width="24" height="24" fill="white" transform="matrix(1 0 0 -1 0 24)"/>
</clipPath>
</defs>
</svg>
