<svg width="12" height="12" viewBox="0 0 12 12" fill="none" xmlns="http://www.w3.org/2000/svg">
<g clip-path="url(#clip0_14_156)">
<path d="M6 0C2.688 0 0 2.688 0 6C0 9.312 2.688 12 6 12C9.312 12 12 9.312 12 6C12 2.688 9.312 0 6 0ZM6 1.8C6.996 1.8 7.8 2.604 7.8 3.6C7.8 4.596 6.996 5.4 6 5.4C5.004 5.4 4.2 4.596 4.2 3.6C4.2 2.604 5.004 1.8 6 1.8ZM6 10.32C4.5 10.32 3.174 9.552 2.4 8.388C2.418 7.194 4.8 6.54 6 6.54C7.194 6.54 9.582 7.194 9.6 8.388C8.826 9.552 7.5 10.32 6 10.32Z" fill="black"/>
</g>
<defs>
<clipPath id="clip0_14_156">
<rect width="12" height="12" fill="white"/>
</clipPath>
</defs>
</svg>
