<svg width="24" height="24" viewBox="0 0 24 24" fill="none" xmlns="http://www.w3.org/2000/svg">
<g id="Size=24, Color=Black, Type=reload" clip-path="url(#clip0_14_741)">
<path id="Vector" d="M20.4728 3.525C18.2964 1.35 15.3096 0 11.9925 0C5.35835 0 0 5.37 0 12C0 18.63 5.35835 24 11.9925 24C17.591 24 22.2589 20.175 23.5947 15H20.4728C19.242 18.495 15.9099 21 11.9925 21C7.02439 21 2.98687 16.965 2.98687 12C2.98687 7.035 7.02439 3 11.9925 3C14.4841 3 16.7054 4.035 18.3265 5.67L13.4934 10.5H24V0L20.4728 3.525Z" fill="black"/>
</g>
<defs>
<clipPath id="clip0_14_741">
<rect width="24" height="24" fill="white" transform="matrix(1 0 0 -1 0 24)"/>
</clipPath>
</defs>
</svg>
