<svg width="12" height="12" viewBox="0 0 12 12" fill="none" xmlns="http://www.w3.org/2000/svg">
<g clip-path="url(#clip0_14_534)">
<path fill-rule="evenodd" clip-rule="evenodd" d="M6 0C2.688 0 0 2.688 0 6C0 9.312 2.688 12 6 12C9.312 12 12 9.312 12 6C12 2.688 9.312 0 6 0ZM8.94 8.094L8.1 8.934C7.98 9.054 7.794 9.054 7.674 8.934L5.628 6.888C4.896 7.146 4.044 6.99 3.456 6.402C2.79 5.736 2.676 4.728 3.102 3.942L4.512 5.352L5.358 4.506L3.948 3.102C4.74 2.676 5.742 2.79 6.408 3.456C6.996 4.044 7.152 4.896 6.894 5.628L8.94 7.674C9.054 7.788 9.054 7.98 8.94 8.094Z" fill="black"/>
</g>
<defs>
<clipPath id="clip0_14_534">
<rect width="12" height="12" fill="white"/>
</clipPath>
</defs>
</svg>
