<svg width="36" height="36" viewBox="0 0 36 36" fill="none" xmlns="http://www.w3.org/2000/svg">
<g clip-path="url(#clip0_14_537)">
<path fill-rule="evenodd" clip-rule="evenodd" d="M18 0C8.064 0 0 8.064 0 18C0 27.936 8.064 36 18 36C27.936 36 36 27.936 36 18C36 8.064 27.936 0 18 0ZM26.82 24.282L24.3 26.802C23.94 27.162 23.382 27.162 23.022 26.802L16.884 20.664C14.688 21.438 12.132 20.97 10.368 19.206C8.37 17.208 8.028 14.184 9.306 11.826L13.536 16.056L16.074 13.518L11.844 9.306C14.22 8.028 17.226 8.37 19.224 10.368C20.988 12.132 21.456 14.688 20.682 16.884L26.82 23.022C27.162 23.364 27.162 23.94 26.82 24.282Z" fill="black"/>
</g>
<defs>
<clipPath id="clip0_14_537">
<rect width="36" height="36" fill="white"/>
</clipPath>
</defs>
</svg>
