<svg width="24" height="24" viewBox="0 0 24 24" fill="none" xmlns="http://www.w3.org/2000/svg">
<g clip-path="url(#clip0_14_540)">
<path fill-rule="evenodd" clip-rule="evenodd" d="M12 0C5.376 0 0 5.376 0 12C0 18.624 5.376 24 12 24C18.624 24 24 18.624 24 12C24 5.376 18.624 0 12 0ZM17.88 16.188L16.2 17.868C15.96 18.108 15.588 18.108 15.348 17.868L11.256 13.776C9.792 14.292 8.088 13.98 6.912 12.804C5.58 11.472 5.352 9.456 6.204 7.884L9.024 10.704L10.716 9.012L7.896 6.204C9.48 5.352 11.484 5.58 12.816 6.912C13.992 8.088 14.304 9.792 13.788 11.256L17.88 15.348C18.108 15.576 18.108 15.96 17.88 16.188Z" fill="black"/>
</g>
<defs>
<clipPath id="clip0_14_540">
<rect width="24" height="24" fill="white"/>
</clipPath>
</defs>
</svg>
