<svg width="12" height="12" viewBox="0 0 12 12" fill="none" xmlns="http://www.w3.org/2000/svg">
<g clip-path="url(#clip0_366_1026)">
<path d="M3.25444 0.305622C2.19527 0.968765 1.47929 2.13936 1.47929 3.47717C1.47929 4.81499 2.19527 5.98558 3.27219 6.64873C1.45562 6.64873 0 5.23018 0 3.47717C0 2.63603 0.342877 1.82933 0.953203 1.23455C1.56353 0.639767 2.39131 0.305622 3.25444 0.305622ZM10.1006 1.17059L10.9467 1.99519L1.73373 10.9736L0.887574 10.149L10.1006 1.17059ZM6.44379 2.57184L5.56805 2.03556L4.71598 2.61221L4.9645 1.63191L4.14201 1.02066L5.17751 0.951466L5.52071 0L5.91716 0.939933L6.94083 0.957232L6.14201 1.60884L6.44379 2.57184ZM4.49112 4.65353L3.80473 4.23258L3.14201 4.68236L3.34319 3.92119L2.69822 3.44258L3.50296 3.39068L3.76923 2.6468L4.07101 3.37914L4.87574 3.39644L4.25444 3.89813L4.49112 4.65353ZM10.0592 6.93705C10.0592 7.7782 9.71629 8.58489 9.10597 9.17968C8.49564 9.77446 7.66786 10.1086 6.80473 10.1086C6.08284 10.1086 5.4142 9.87794 4.87574 9.49159L9.42603 5.05718C9.82248 5.58193 10.0592 6.23354 10.0592 6.93705ZM7.45562 10.7314L9.09468 10.0682L8.95266 12L7.45562 10.7314ZM10.0178 9.17444L10.6982 7.57713L12 9.04181L10.0178 9.17444ZM10.6982 6.31427L10.0237 4.7112L12 4.84959L10.6982 6.31427ZM4.51479 10.0682L6.15385 10.7314L4.6568 11.9942L4.51479 10.0682Z" fill="black"/>
</g>
<defs>
<clipPath id="clip0_366_1026">
<rect width="12" height="12" fill="white" transform="matrix(1 0 0 -1 0 12)"/>
</clipPath>
</defs>
</svg>
