<svg width="36" height="36" viewBox="0 0 36 36" fill="none" xmlns="http://www.w3.org/2000/svg">
<g clip-path="url(#clip0_366_1032)">
<path d="M9.76331 0.916867C6.5858 2.9063 4.43787 6.41807 4.43787 10.4315C4.43787 14.445 6.5858 17.9568 9.81657 19.9462C4.36686 19.9462 0 15.6905 0 10.4315C0 7.90808 1.02863 5.48799 2.85961 3.70365C4.69058 1.9193 7.17392 0.916867 9.76331 0.916867ZM30.3018 3.51177L32.8402 5.98558L5.20118 32.9207L2.66272 30.4469L30.3018 3.51177ZM19.3314 7.71552L16.7041 6.10668L14.1479 7.83662L14.8935 4.89572L12.426 3.06199L15.5325 2.8544L16.5621 0L17.7515 2.8198L20.8225 2.8717L18.426 4.82653L19.3314 7.71552ZM13.4734 13.9606L11.4142 12.6977L9.42603 14.0471L10.0296 11.7636L8.09467 10.3277L10.5089 10.172L11.3077 7.94041L12.213 10.1374L14.6272 10.1893L12.7633 11.6944L13.4734 13.9606ZM30.1775 20.8111C30.1775 23.3346 29.1489 25.7547 27.3179 27.539C25.4869 29.3234 23.0036 30.3258 20.4142 30.3258C18.2485 30.3258 16.2426 29.6338 14.6272 28.4748L28.2781 15.1716C29.4675 16.7458 30.1775 18.7006 30.1775 20.8111ZM22.3669 32.1941L27.284 30.2047L26.858 36L22.3669 32.1941ZM30.0533 27.5233L32.0947 22.7314L36 27.1254L30.0533 27.5233ZM32.0947 18.9428L30.071 14.1336L36 14.5488L32.0947 18.9428ZM13.5444 30.2047L18.4615 32.1941L13.9704 35.9827L13.5444 30.2047Z" fill="black"/>
</g>
<defs>
<clipPath id="clip0_366_1032">
<rect width="36" height="36" fill="white" transform="matrix(1 0 0 -1 0 36)"/>
</clipPath>
</defs>
</svg>
