<svg width="36" height="36" viewBox="0 0 36 36" fill="none" xmlns="http://www.w3.org/2000/svg">
<g clip-path="url(#clip0_14_912)">
<path d="M13.6398 36L13.0841 35.3146L12.7874 34.9588L6.29622 27.0958L6.30021 27.0908L0 19.4589L7.3507 10.5547L13.6435 18.1774L28.6495 0L36 8.90422L20.9942 27.0815L20.1462 28.1187L13.6398 36ZM9.68888 27.0773L13.6392 31.8626L13.6468 31.8535L13.6508 31.8584L17.59 27.0867L18.4379 26.0497L32.5922 8.90422L28.6495 4.12819L13.6435 22.3054L7.3507 14.6827L3.40787 19.4589L9.69302 27.0722L9.68888 27.0773Z" fill="black"/>
</g>
<defs>
<clipPath id="clip0_14_912">
<rect width="36" height="36" fill="white" transform="matrix(1 0 0 -1 0 36)"/>
</clipPath>
</defs>
</svg>
