<svg width="24" height="24" viewBox="0 0 24 24" fill="none" xmlns="http://www.w3.org/2000/svg">
<g clip-path="url(#clip0_14_915)">
<path d="M9.09318 24L8.72273 23.5431L8.52493 23.3059L4.19748 18.0639L4.20014 18.0605L0 12.9726L4.90047 7.03649L9.09564 12.1183L19.0996 0L24 5.93615L13.9961 18.0543L13.4308 18.7458L9.09318 24ZM6.45925 18.0515L9.09282 21.2417L9.09784 21.2356L9.10056 21.2389L11.7267 18.0578L12.2919 17.3665L21.7281 5.93615L19.0996 2.75213L9.09564 14.8703L4.90047 9.7885L2.27191 12.9726L6.46201 18.0482L6.45925 18.0515Z" fill="black"/>
</g>
<defs>
<clipPath id="clip0_14_915">
<rect width="24" height="24" fill="white" transform="matrix(1 0 0 -1 0 24)"/>
</clipPath>
</defs>
</svg>
