<svg width="12" height="12" viewBox="0 0 12 12" fill="none" xmlns="http://www.w3.org/2000/svg">
<g clip-path="url(#clip0_14_909)">
<path d="M4.54659 12L4.36137 11.7715L4.26247 11.6529L2.09874 9.03193L2.10007 9.03025L0 6.48629L2.45023 3.51824L4.54782 6.05914L9.54982 0L12 2.96807L6.99805 9.02715L6.71541 9.3729L4.54659 12ZM3.22963 9.02575L4.54641 10.6209L4.54892 10.6178L4.55028 10.6195L5.86335 9.02889L6.14596 8.68323L10.8641 2.96807L9.54982 1.37606L4.54782 7.43514L2.45023 4.89425L1.13596 6.48629L3.23101 9.02408L3.22963 9.02575Z" fill="black"/>
</g>
<defs>
<clipPath id="clip0_14_909">
<rect width="12" height="12" fill="white" transform="matrix(1 0 0 -1 0 12)"/>
</clipPath>
</defs>
</svg>
