<svg width="12" height="12" viewBox="0 0 12 12" fill="none" xmlns="http://www.w3.org/2000/svg">
<g clip-path="url(#clip0_14_852)">
<path d="M10.9091 1.63636H5.45455L4.90909 0H1.09091C0.490909 0 0 0.490909 0 1.09091V9.27273C0 9.87273 0.490909 10.3636 1.09091 10.3636H5.45455L6 12H10.9091C11.5091 12 12 11.5091 12 10.9091V2.72727C12 2.12727 11.5091 1.63636 10.9091 1.63636ZM3.27273 8.18182C1.76727 8.18182 0.545455 6.96 0.545455 5.45455C0.545455 3.94909 1.76727 2.72727 3.27273 2.72727C4.00909 2.72727 4.62545 3 5.1 3.43636L4.38 4.12909C4.17273 3.93273 3.81273 3.70364 3.27273 3.70364C2.32364 3.70364 1.55455 4.48909 1.55455 5.45455C1.55455 6.42 2.32364 7.20545 3.27273 7.20545C4.36909 7.20545 4.82182 6.42 4.86545 5.89091H3.27273V4.95818H5.82545C5.86364 5.12727 5.89091 5.29091 5.89091 5.51455C5.89091 7.07455 4.84909 8.18182 3.27273 8.18182ZM6.63818 5.22545H8.65636C8.42182 5.90727 8.05091 6.55091 7.53818 7.11818C7.36909 6.92727 7.21091 6.72545 7.06909 6.51818L6.63818 5.22545ZM11.1818 10.6364C11.1818 10.9364 10.9364 11.1818 10.6364 11.1818H7.09091L8.18182 9.81818L7.61455 8.12727L9.30545 9.81818L9.80727 9.31636L8.00727 7.54364L8.01818 7.53273C8.63455 6.85091 9.07091 6.06545 9.32727 5.23091H10.3636V4.52182H7.89273V3.81818H7.18909V4.52182H6.40364L5.70545 2.45455H10.6364C10.9364 2.45455 11.1818 2.7 11.1818 3V10.6364Z" fill="black"/>
</g>
<defs>
<clipPath id="clip0_14_852">
<rect width="12" height="12" fill="white" transform="matrix(1 0 0 -1 0 12)"/>
</clipPath>
</defs>
</svg>
