<svg width="24" height="24" viewBox="0 0 24 24" fill="none" xmlns="http://www.w3.org/2000/svg">
<g clip-path="url(#clip0_14_858)">
<path d="M21.8182 3.27273H10.9091L9.81818 0H2.18182C0.981818 0 0 0.981818 0 2.18182V18.5455C0 19.7455 0.981818 20.7273 2.18182 20.7273H10.9091L12 24H21.8182C23.0182 24 24 23.0182 24 21.8182V5.45455C24 4.25455 23.0182 3.27273 21.8182 3.27273ZM6.54545 16.3636C3.53455 16.3636 1.09091 13.92 1.09091 10.9091C1.09091 7.89818 3.53455 5.45455 6.54545 5.45455C8.01818 5.45455 9.25091 6 10.2 6.87273L8.76 8.25818C8.34545 7.86545 7.62545 7.40727 6.54545 7.40727C4.64727 7.40727 3.10909 8.97818 3.10909 10.9091C3.10909 12.84 4.64727 14.4109 6.54545 14.4109C8.73818 14.4109 9.64364 12.84 9.73091 11.7818H6.54545V9.91636H11.6509C11.7273 10.2545 11.7818 10.5818 11.7818 11.0291C11.7818 14.1491 9.69818 16.3636 6.54545 16.3636ZM13.2764 10.4509H17.3127C16.8436 11.8145 16.1018 13.1018 15.0764 14.2364C14.7382 13.8545 14.4218 13.4509 14.1382 13.0364L13.2764 10.4509ZM22.3636 21.2727C22.3636 21.8727 21.8727 22.3636 21.2727 22.3636H14.1818L16.3636 19.6364L15.2291 16.2545L18.6109 19.6364L19.6145 18.6327L16.0145 15.0873L16.0364 15.0655C17.2691 13.7018 18.1418 12.1309 18.6545 10.4618H20.7273V9.04364H15.7855V7.63636H14.3782V9.04364H12.8073L11.4109 4.90909H21.2727C21.8727 4.90909 22.3636 5.4 22.3636 6V21.2727Z" fill="black"/>
</g>
<defs>
<clipPath id="clip0_14_858">
<rect width="24" height="24" fill="white" transform="matrix(1 0 0 -1 0 24)"/>
</clipPath>
</defs>
</svg>
