<svg width="36" height="36" viewBox="0 0 36 36" fill="none" xmlns="http://www.w3.org/2000/svg">
<g clip-path="url(#clip0_14_855)">
<path d="M32.7273 4.90909H16.3636L14.7273 0H3.27273C1.47273 0 0 1.47273 0 3.27273V27.8182C0 29.6182 1.47273 31.0909 3.27273 31.0909H16.3636L18 36H32.7273C34.5273 36 36 34.5273 36 32.7273V8.18182C36 6.38182 34.5273 4.90909 32.7273 4.90909ZM9.81818 24.5455C5.30182 24.5455 1.63636 20.88 1.63636 16.3636C1.63636 11.8473 5.30182 8.18182 9.81818 8.18182C12.0273 8.18182 13.8764 9 15.3 10.3091L13.14 12.3873C12.5182 11.7982 11.4382 11.1109 9.81818 11.1109C6.97091 11.1109 4.66364 13.4673 4.66364 16.3636C4.66364 19.26 6.97091 21.6164 9.81818 21.6164C13.1073 21.6164 14.4655 19.26 14.5964 17.6727H9.81818V14.8745H17.4764C17.5909 15.3818 17.6727 15.8727 17.6727 16.5436C17.6727 21.2236 14.5473 24.5455 9.81818 24.5455ZM19.9145 15.6764H25.9691C25.2655 17.7218 24.1527 19.6527 22.6145 21.3545C22.1073 20.7818 21.6327 20.1764 21.2073 19.5545L19.9145 15.6764ZM33.5455 31.9091C33.5455 32.8091 32.8091 33.5455 31.9091 33.5455H21.2727L24.5455 29.4545L22.8436 24.3818L27.9164 29.4545L29.4218 27.9491L24.0218 22.6309L24.0545 22.5982C25.9036 20.5527 27.2127 18.1964 27.9818 15.6927H31.0909V13.5655H23.6782V11.4545H21.5673V13.5655H19.2109L17.1164 7.36364H31.9091C32.8091 7.36364 33.5455 8.1 33.5455 9V31.9091Z" fill="black"/>
</g>
<defs>
<clipPath id="clip0_14_855">
<rect width="36" height="36" fill="white" transform="matrix(1 0 0 -1 0 36)"/>
</clipPath>
</defs>
</svg>
